<svg width="156" height="21" viewBox="0 0 156 21" fill="none" xmlns="http://www.w3.org/2000/svg">
  <path
    d="M0.546875 16V14.291L2.06055 13.998V3.79297L0.546875 3.5V1.78125H11.8652V5.67773H9.67773L9.55078 3.97852H4.91211V7.89453H9.89258V10.0918H4.91211V13.998L6.43555 14.291V16H0.546875ZM12.9395 16V14.291L14.3066 13.998V7.44531L12.793 7.15234V5.43359H16.9629L17.0703 6.74219L17.0898 6.97656C17.3503 6.40365 17.6725 5.9707 18.0566 5.67773C18.4408 5.38477 18.8997 5.23828 19.4336 5.23828C19.6029 5.23828 19.7884 5.25456 19.9902 5.28711C20.1921 5.31315 20.3711 5.34896 20.5273 5.39453L20.2246 8.02148L18.8086 7.94336C18.4049 7.92383 18.0762 7.99219 17.8223 8.14844C17.5749 8.30469 17.3535 8.5293 17.1582 8.82227V13.998L18.5254 14.291V16H12.9395ZM26.2402 16.2051C25.2311 16.2051 24.349 15.9837 23.5938 15.541C22.8385 15.0918 22.2526 14.4766 21.8359 13.6953C21.4258 12.9141 21.2207 12.0221 21.2207 11.0195V10.6289C21.2207 9.58073 21.416 8.65299 21.8066 7.8457C22.1973 7.0319 22.7474 6.39388 23.457 5.93164C24.1732 5.46289 25.0163 5.23177 25.9863 5.23828C26.9434 5.23828 27.7474 5.42708 28.3984 5.80469C29.0495 6.18229 29.5443 6.72591 29.8828 7.43555C30.2214 8.14518 30.3906 9.00456 30.3906 10.0137V11.5664H24.1797L24.1602 11.625C24.1992 12.0872 24.3132 12.5007 24.502 12.8652C24.6973 13.2233 24.9707 13.5065 25.3223 13.7148C25.6738 13.9167 26.1003 14.0176 26.6016 14.0176C27.1224 14.0176 27.6074 13.9525 28.0566 13.8223C28.5124 13.6855 28.9551 13.487 29.3848 13.2266L30.1562 14.9844C29.7201 15.3359 29.1699 15.6289 28.5059 15.8633C27.8483 16.0911 27.0931 16.2051 26.2402 16.2051ZM24.1992 9.68164H27.7246V9.42773C27.7246 8.99805 27.666 8.63021 27.5488 8.32422C27.4382 8.01172 27.2559 7.77083 27.002 7.60156C26.7546 7.43229 26.4323 7.34766 26.0352 7.34766C25.6576 7.34766 25.3385 7.44857 25.0781 7.65039C24.8177 7.8457 24.6126 8.11589 24.4629 8.46094C24.3197 8.80599 24.222 9.19661 24.1699 9.63281L24.1992 9.68164ZM36.8066 16.2051C35.7975 16.2051 34.9154 15.9837 34.1602 15.541C33.4049 15.0918 32.819 14.4766 32.4023 13.6953C31.9922 12.9141 31.7871 12.0221 31.7871 11.0195V10.6289C31.7871 9.58073 31.9824 8.65299 32.373 7.8457C32.7637 7.0319 33.3138 6.39388 34.0234 5.93164C34.7396 5.46289 35.5827 5.23177 36.5527 5.23828C37.5098 5.23828 38.3138 5.42708 38.9648 5.80469C39.6159 6.18229 40.1107 6.72591 40.4492 7.43555C40.7878 8.14518 40.957 9.00456 40.957 10.0137V11.5664H34.7461L34.7266 11.625C34.7656 12.0872 34.8796 12.5007 35.0684 12.8652C35.2637 13.2233 35.5371 13.5065 35.8887 13.7148C36.2402 13.9167 36.6667 14.0176 37.168 14.0176C37.6888 14.0176 38.1738 13.9525 38.623 13.8223C39.0788 13.6855 39.5215 13.487 39.9512 13.2266L40.7227 14.9844C40.2865 15.3359 39.7363 15.6289 39.0723 15.8633C38.4147 16.0911 37.6595 16.2051 36.8066 16.2051ZM34.7656 9.68164H38.291V9.42773C38.291 8.99805 38.2324 8.63021 38.1152 8.32422C38.0046 8.01172 37.8223 7.77083 37.5684 7.60156C37.321 7.43229 36.9987 7.34766 36.6016 7.34766C36.224 7.34766 35.9049 7.44857 35.6445 7.65039C35.3841 7.8457 35.179 8.11589 35.0293 8.46094C34.8861 8.80599 34.7884 9.19661 34.7363 9.63281L34.7656 9.68164ZM46.3379 16.2051C45.498 16.2051 44.7754 15.9902 44.1699 15.5605C43.571 15.1243 43.112 14.5189 42.793 13.7441C42.474 12.9629 42.3145 12.0514 42.3145 11.0098V10.8047C42.3145 9.69141 42.474 8.7181 42.793 7.88477C43.1185 7.05143 43.5807 6.40365 44.1797 5.94141C44.7786 5.47266 45.4948 5.23828 46.3281 5.23828C46.9076 5.23828 47.4154 5.35547 47.8516 5.58984C48.2878 5.81771 48.6654 6.14323 48.9844 6.56641V2.77734L47.4609 2.48438V0.765625H48.9844H51.8359V13.998L53.2031 14.291V16H49.3652L49.1504 14.7109C48.8184 15.1992 48.4212 15.5703 47.959 15.8242C47.5033 16.0781 46.9629 16.2051 46.3379 16.2051ZM47.1875 13.9883C47.5846 13.9883 47.9329 13.9036 48.2324 13.7344C48.5319 13.5651 48.7826 13.321 48.9844 13.002V8.51953C48.7891 8.18099 48.5417 7.92057 48.2422 7.73828C47.9427 7.54948 47.5977 7.45508 47.207 7.45508C46.7318 7.45508 46.3411 7.59831 46.0352 7.88477C45.7357 8.16471 45.5143 8.55534 45.3711 9.05664C45.2344 9.55794 45.166 10.1406 45.166 10.8047V11.0098C45.166 11.9342 45.3223 12.6634 45.6348 13.1973C45.9473 13.7246 46.4648 13.9883 47.1875 13.9883ZM59.1309 16.2051C58.0892 16.2051 57.194 15.9772 56.4453 15.5215C55.6966 15.0658 55.1237 14.4342 54.7266 13.627C54.3294 12.8132 54.1309 11.8789 54.1309 10.8242V10.6191C54.1309 9.57096 54.3294 8.64323 54.7266 7.83594C55.1237 7.02214 55.6934 6.38737 56.4355 5.93164C57.1842 5.4694 58.0762 5.23828 59.1113 5.23828C60.1595 5.23828 61.0547 5.4694 61.7969 5.93164C62.5391 6.38737 63.1087 7.01888 63.5059 7.82617C63.903 8.63346 64.1016 9.56445 64.1016 10.6191V10.8242C64.1016 11.8789 63.903 12.8132 63.5059 13.627C63.1087 14.4342 62.5391 15.0658 61.7969 15.5215C61.0547 15.9772 60.166 16.2051 59.1309 16.2051ZM59.1309 14.0176C59.6257 14.0176 60.0293 13.8841 60.3418 13.6172C60.6543 13.3503 60.8854 12.9792 61.0352 12.5039C61.1849 12.0221 61.2598 11.4622 61.2598 10.8242V10.6191C61.2598 9.99414 61.1849 9.44401 61.0352 8.96875C60.8854 8.48698 60.651 8.11263 60.332 7.8457C60.0195 7.57227 59.6126 7.43555 59.1113 7.43555C58.623 7.43555 58.2194 7.57227 57.9004 7.8457C57.5814 8.11263 57.347 8.48698 57.1973 8.96875C57.054 9.44401 56.9824 9.99414 56.9824 10.6191V10.8242C56.9824 11.4622 57.054 12.0221 57.1973 12.5039C57.347 12.9857 57.5814 13.36 57.9004 13.627C58.2194 13.8874 58.6296 14.0176 59.1309 14.0176ZM65.2734 16V14.291L66.6504 13.998V7.44531L65.127 7.15234V5.43359H69.2969L69.4141 6.83008C69.7526 6.32227 70.1758 5.93164 70.6836 5.6582C71.1979 5.37826 71.7904 5.23828 72.4609 5.23828C73.138 5.23828 73.7174 5.38802 74.1992 5.6875C74.6875 5.98698 75.0521 6.43945 75.293 7.04492C75.6185 6.47852 76.0417 6.03581 76.5625 5.7168C77.0833 5.39779 77.6953 5.23828 78.3984 5.23828C79.4401 5.23828 80.2604 5.5931 80.8594 6.30273C81.4648 7.01237 81.7676 8.0931 81.7676 9.54492V13.998L83.1445 14.291V16H77.6855V14.291L78.916 13.998V9.53516C78.916 8.75391 78.7858 8.21354 78.5254 7.91406C78.2715 7.60807 77.9004 7.45508 77.4121 7.45508C76.9694 7.45508 76.5951 7.58203 76.2891 7.83594C75.9831 8.08333 75.7617 8.41211 75.625 8.82227V13.998L76.7773 14.291V16H71.6309V14.291L72.7832 13.998V9.53516C72.7832 8.77344 72.653 8.23633 72.3926 7.92383C72.1387 7.61133 71.7611 7.45508 71.2598 7.45508C70.8561 7.45508 70.5078 7.53646 70.2148 7.69922C69.9219 7.86198 69.681 8.09635 69.4922 8.40234V13.998L70.7227 14.291V16H65.2734ZM87.9102 16.2051C86.9271 16.2051 86.1686 15.9349 85.6348 15.3945C85.1074 14.8542 84.8438 13.998 84.8438 12.8262V7.43555H83.3887V5.43359H84.8438V2.8457H87.6855V5.43359H89.6289V7.43555H87.6855V12.8164C87.6855 13.2266 87.7702 13.5195 87.9395 13.6953C88.1152 13.8711 88.3529 13.959 88.6523 13.959C88.8151 13.959 88.9844 13.9492 89.1602 13.9297C89.3424 13.9036 89.4987 13.8776 89.6289 13.8516L89.873 15.9121C89.5801 15.9967 89.2611 16.0651 88.916 16.1172C88.5775 16.1758 88.2422 16.2051 87.9102 16.2051ZM95.752 16.2051C94.7103 16.2051 93.8151 15.9772 93.0664 15.5215C92.3177 15.0658 91.7448 14.4342 91.3477 13.627C90.9505 12.8132 90.752 11.8789 90.752 10.8242V10.6191C90.752 9.57096 90.9505 8.64323 91.3477 7.83594C91.7448 7.02214 92.3145 6.38737 93.0566 5.93164C93.8053 5.4694 94.6973 5.23828 95.7324 5.23828C96.7806 5.23828 97.6758 5.4694 98.418 5.93164C99.1602 6.38737 99.7298 7.01888 100.127 7.82617C100.524 8.63346 100.723 9.56445 100.723 10.6191V10.8242C100.723 11.8789 100.524 12.8132 100.127 13.627C99.7298 14.4342 99.1602 15.0658 98.418 15.5215C97.6758 15.9772 96.7871 16.2051 95.752 16.2051ZM95.752 14.0176C96.2467 14.0176 96.6504 13.8841 96.9629 13.6172C97.2754 13.3503 97.5065 12.9792 97.6562 12.5039C97.806 12.0221 97.8809 11.4622 97.8809 10.8242V10.6191C97.8809 9.99414 97.806 9.44401 97.6562 8.96875C97.5065 8.48698 97.2721 8.11263 96.9531 7.8457C96.6406 7.57227 96.2337 7.43555 95.7324 7.43555C95.2441 7.43555 94.8405 7.57227 94.5215 7.8457C94.2025 8.11263 93.9681 8.48698 93.8184 8.96875C93.6751 9.44401 93.6035 9.99414 93.6035 10.6191V10.8242C93.6035 11.4622 93.6751 12.0221 93.8184 12.5039C93.9681 12.9857 94.2025 13.36 94.5215 13.627C94.8405 13.8874 95.2507 14.0176 95.752 14.0176ZM107.158 16.2051C106.117 16.2051 105.221 15.9772 104.473 15.5215C103.724 15.0658 103.151 14.4342 102.754 13.627C102.357 12.8132 102.158 11.8789 102.158 10.8242V10.6191C102.158 9.57096 102.357 8.64323 102.754 7.83594C103.151 7.02214 103.721 6.38737 104.463 5.93164C105.212 5.4694 106.104 5.23828 107.139 5.23828C108.187 5.23828 109.082 5.4694 109.824 5.93164C110.566 6.38737 111.136 7.01888 111.533 7.82617C111.93 8.63346 112.129 9.56445 112.129 10.6191V10.8242C112.129 11.8789 111.93 12.8132 111.533 13.627C111.136 14.4342 110.566 15.0658 109.824 15.5215C109.082 15.9772 108.193 16.2051 107.158 16.2051ZM107.158 14.0176C107.653 14.0176 108.057 13.8841 108.369 13.6172C108.682 13.3503 108.913 12.9792 109.062 12.5039C109.212 12.0221 109.287 11.4622 109.287 10.8242V10.6191C109.287 9.99414 109.212 9.44401 109.062 8.96875C108.913 8.48698 108.678 8.11263 108.359 7.8457C108.047 7.57227 107.64 7.43555 107.139 7.43555C106.65 7.43555 106.247 7.57227 105.928 7.8457C105.609 8.11263 105.374 8.48698 105.225 8.96875C105.081 9.44401 105.01 9.99414 105.01 10.6191V10.8242C105.01 11.4622 105.081 12.0221 105.225 12.5039C105.374 12.9857 105.609 13.36 105.928 13.627C106.247 13.8874 106.657 14.0176 107.158 14.0176ZM113.057 16V14.291L114.434 13.998V2.77734L112.91 2.48438V0.765625H117.285V13.998L118.662 14.291V16H113.057ZM120.244 16V13.5H123.086V16H120.244ZM129.736 16.2051C128.695 16.2051 127.799 15.9772 127.051 15.5215C126.302 15.0658 125.729 14.4342 125.332 13.627C124.935 12.8132 124.736 11.8789 124.736 10.8242V10.6191C124.736 9.57096 124.935 8.64323 125.332 7.83594C125.729 7.02214 126.299 6.38737 127.041 5.93164C127.79 5.4694 128.682 5.23828 129.717 5.23828C130.765 5.23828 131.66 5.4694 132.402 5.93164C133.145 6.38737 133.714 7.01888 134.111 7.82617C134.508 8.63346 134.707 9.56445 134.707 10.6191V10.8242C134.707 11.8789 134.508 12.8132 134.111 13.627C133.714 14.4342 133.145 15.0658 132.402 15.5215C131.66 15.9772 130.771 16.2051 129.736 16.2051ZM129.736 14.0176C130.231 14.0176 130.635 13.8841 130.947 13.6172C131.26 13.3503 131.491 12.9792 131.641 12.5039C131.79 12.0221 131.865 11.4622 131.865 10.8242V10.6191C131.865 9.99414 131.79 9.44401 131.641 8.96875C131.491 8.48698 131.257 8.11263 130.938 7.8457C130.625 7.57227 130.218 7.43555 129.717 7.43555C129.229 7.43555 128.825 7.57227 128.506 7.8457C128.187 8.11263 127.952 8.48698 127.803 8.96875C127.66 9.44401 127.588 9.99414 127.588 10.6191V10.8242C127.588 11.4622 127.66 12.0221 127.803 12.5039C127.952 12.9857 128.187 13.36 128.506 13.627C128.825 13.8874 129.235 14.0176 129.736 14.0176ZM136.201 16V14.291L137.568 13.998V7.44531L136.055 7.15234V5.43359H140.225L140.332 6.74219L140.352 6.97656C140.612 6.40365 140.934 5.9707 141.318 5.67773C141.702 5.38477 142.161 5.23828 142.695 5.23828C142.865 5.23828 143.05 5.25456 143.252 5.28711C143.454 5.31315 143.633 5.34896 143.789 5.39453L143.486 8.02148L142.07 7.94336C141.667 7.92383 141.338 7.99219 141.084 8.14844C140.837 8.30469 140.615 8.5293 140.42 8.82227V13.998L141.787 14.291V16H136.201ZM149.102 20.2676C148.568 20.2676 147.969 20.1992 147.305 20.0625C146.641 19.9258 146.055 19.7305 145.547 19.4766L146.074 17.4453C146.53 17.6406 147.012 17.7936 147.52 17.9043C148.034 18.0215 148.512 18.0801 148.955 18.0801C149.717 18.0801 150.273 17.8685 150.625 17.4453C150.983 17.0221 151.162 16.4329 151.162 15.6777V14.9844C150.85 15.3815 150.482 15.6842 150.059 15.8926C149.635 16.1009 149.15 16.2051 148.604 16.2051C147.744 16.2051 147.005 15.9902 146.387 15.5605C145.768 15.1243 145.296 14.5156 144.971 13.7344C144.645 12.9531 144.482 12.0449 144.482 11.0098V10.8047C144.482 9.69141 144.645 8.7181 144.971 7.88477C145.296 7.05143 145.762 6.40365 146.367 5.94141C146.973 5.47266 147.699 5.23828 148.545 5.23828C149.176 5.23828 149.72 5.37174 150.176 5.63867C150.632 5.89909 151.019 6.27344 151.338 6.76172L151.543 5.43359H154.023V15.6875C154.023 16.6185 153.825 17.4258 153.428 18.1094C153.037 18.793 152.474 19.3236 151.738 19.7012C151.003 20.0788 150.124 20.2676 149.102 20.2676ZM149.404 13.9883C149.808 13.9883 150.156 13.9102 150.449 13.7539C150.742 13.5911 150.98 13.3568 151.162 13.0508V8.46094C150.98 8.14193 150.739 7.89453 150.439 7.71875C150.146 7.54297 149.805 7.45508 149.414 7.45508C148.926 7.45508 148.529 7.59831 148.223 7.88477C147.917 8.16471 147.692 8.55534 147.549 9.05664C147.406 9.55143 147.334 10.1341 147.334 10.8047V11.0098C147.334 11.9342 147.493 12.6634 147.812 13.1973C148.132 13.7246 148.662 13.9883 149.404 13.9883ZM153.662 7.49414L152.422 5.43359H155.264V7.15234L153.662 7.49414Z"
    fill="black"/>
</svg>
