<svg width="119" height="40" viewBox="0 0 119 40" fill="none" xmlns="http://www.w3.org/2000/svg">
<path d="M26.3858 19.0867C26.3618 16.2227 28.7298 14.8307 28.8338 14.7667C27.4898 12.8147 25.4098 12.5427 24.6818 12.5187C22.9378 12.3347 21.2418 13.5667 20.3538 13.5667C19.4498 13.5667 18.0738 12.5427 16.6018 12.5667C14.7058 12.5987 12.9218 13.6947 11.9538 15.4067C9.94583 18.8867 11.4418 24.0067 13.3698 26.8227C14.3378 28.1987 15.4578 29.7427 16.9378 29.6867C18.3778 29.6307 18.9218 28.7667 20.6578 28.7667C22.3858 28.7667 22.8898 29.6867 24.3938 29.6547C25.9458 29.6307 26.9138 28.2707 27.8498 26.8787C28.9618 25.3027 29.4098 23.7427 29.4258 23.6627C29.3858 23.6467 26.4178 22.5107 26.3858 19.0867Z" fill="#0D1B2A"/>
<path d="M23.5451 10.6711C24.3211 9.70306 24.8491 8.38306 24.7051 7.03906C23.5851 7.08706 22.1771 7.81506 21.3691 8.76706C20.6571 9.60706 20.0171 10.9751 20.1771 12.2631C21.4411 12.3591 22.7371 11.6231 23.5451 10.6711Z" fill="#0D1B2A"/>
<path d="M47.2805 29.4801H45.2645L44.1605 26.0081H40.3205L39.2725 29.4801H37.3125L41.1125 17.6641H43.4645L47.2805 29.4801ZM43.8325 24.5521L42.8325 21.4721C42.7285 21.1521 42.5285 20.4161 42.2405 19.2481H42.2005C42.0805 19.7521 41.8965 20.4961 41.6405 21.4721L40.6565 24.5521H43.8325Z" fill="#0D1B2A"/>
<path d="M57.0478 25.1251C57.0478 26.5731 56.6558 27.7171 55.8638 28.5571C55.1598 29.3091 54.2798 29.6771 53.2398 29.6771C52.1118 29.6771 51.3038 29.2771 50.8078 28.4691V32.9411H48.9118V23.7651C48.9118 22.8531 48.8878 21.9251 48.8398 20.9651H50.5038L50.6078 22.3171H50.6398C51.2718 21.3011 52.2318 20.7891 53.5118 20.7891C54.5198 20.7891 55.3518 21.1891 56.0238 21.9811C56.7118 22.7811 57.0478 23.8211 57.0478 25.1251ZM55.1198 25.1891C55.1198 24.3571 54.9358 23.6771 54.5598 23.1411C54.1518 22.5811 53.5998 22.3011 52.9118 22.3011C52.4478 22.3011 52.0238 22.4611 51.6398 22.7651C51.2638 23.0771 51.0078 23.4771 50.8958 23.9811C50.8398 24.2131 50.8078 24.4051 50.8078 24.5571V25.9811C50.8078 26.5971 50.9998 27.1251 51.3758 27.5491C51.7518 27.9731 52.2478 28.1891 52.8558 28.1891C53.5678 28.1891 54.1198 27.9091 54.5198 27.3651C54.9198 26.8131 55.1198 26.0931 55.1198 25.1891Z" fill="#0D1B2A"/>
<path d="M66.8408 25.1251C66.8408 26.5731 66.4488 27.7171 65.6568 28.5571C64.9528 29.3091 64.0728 29.6771 63.0328 29.6771C61.9048 29.6771 61.0968 29.2771 60.6008 28.4691V32.9411H58.7048V23.7651C58.7048 22.8531 58.6808 21.9251 58.6328 20.9651H60.2968L60.4008 22.3171H60.4328C61.0648 21.3011 62.0248 20.7891 63.3048 20.7891C64.3128 20.7891 65.1448 21.1891 65.8168 21.9811C66.5048 22.7811 66.8408 23.8211 66.8408 25.1251ZM64.9128 25.1891C64.9128 24.3571 64.7288 23.6771 64.3528 23.1411C63.9448 22.5811 63.3928 22.3011 62.7048 22.3011C62.2408 22.3011 61.8168 22.4611 61.4328 22.7651C61.0568 23.0771 60.8088 23.4771 60.6888 23.9811C60.6328 24.2131 60.6008 24.4051 60.6008 24.5571V25.9811C60.6008 26.5971 60.7928 27.1251 61.1688 27.5491C61.5448 27.9731 62.0408 28.1891 62.6488 28.1891C63.3608 28.1891 63.9208 27.9091 64.3128 27.3651C64.7208 26.8131 64.9128 26.0931 64.9128 25.1891Z" fill="#0D1B2A"/>
<path d="M77.8005 26.172C77.8005 27.18 77.4485 27.996 76.7525 28.628C75.9845 29.316 74.9125 29.66 73.5365 29.66C72.2645 29.66 71.2485 29.412 70.4805 28.924L70.9205 27.348C71.7525 27.836 72.6645 28.084 73.6565 28.084C74.3685 28.084 74.9285 27.924 75.3205 27.604C75.7205 27.284 75.9205 26.852 75.9205 26.316C75.9205 25.836 75.7525 25.436 75.4325 25.108C75.1045 24.78 74.5605 24.476 73.8005 24.196C71.7125 23.42 70.6805 22.292 70.6805 20.812C70.6805 19.844 71.0485 19.052 71.7765 18.428C72.5045 17.812 73.4725 17.5 74.6805 17.5C75.7525 17.5 76.6485 17.684 77.3605 18.06L76.8805 19.596C76.2085 19.236 75.4565 19.052 74.6085 19.052C73.9445 19.052 73.4165 19.22 73.0405 19.54C72.7285 19.836 72.5685 20.188 72.5685 20.612C72.5685 21.076 72.7525 21.468 73.1125 21.764C73.4245 22.044 74.0005 22.348 74.8325 22.676C75.8485 23.084 76.5925 23.564 77.0725 24.116C77.5605 24.668 77.8005 25.356 77.8005 26.172Z" fill="#0D1B2A"/>
<path d="M84.0707 22.3878H81.9827V26.5237C81.9827 27.5717 82.3507 28.0998 83.0867 28.0998C83.4227 28.0998 83.7027 28.0677 83.9267 28.0117L83.9827 29.4517C83.6067 29.5877 83.1187 29.6597 82.5107 29.6597C81.7587 29.6597 81.1827 29.4277 80.7587 28.9717C80.3347 28.5157 80.1267 27.7478 80.1267 26.6757V22.3797H78.8867V20.9637H80.1267V19.4038L81.9827 18.8438V20.9637H84.0707V22.3878Z" fill="#0D1B2A"/>
<path d="M93.4651 25.1569C93.4651 26.4689 93.0891 27.5409 92.3451 28.3809C91.5611 29.2449 90.5211 29.6769 89.2251 29.6769C87.9771 29.6769 86.9771 29.2609 86.2331 28.4369C85.4891 27.6129 85.1211 26.5649 85.1211 25.3009C85.1211 23.9809 85.5051 22.9009 86.2651 22.0609C87.0331 21.2209 88.0651 20.7969 89.3611 20.7969C90.6091 20.7969 91.6171 21.2129 92.3771 22.0449C93.1051 22.8449 93.4651 23.8849 93.4651 25.1569ZM91.5051 25.1969C91.5051 24.4129 91.3371 23.7489 91.0011 23.1889C90.6011 22.5089 90.0331 22.1729 89.2971 22.1729C88.5371 22.1729 87.9531 22.5089 87.5611 23.1889C87.2171 23.7489 87.0571 24.4289 87.0571 25.2369C87.0571 26.0209 87.2251 26.6929 87.5611 27.2449C87.9691 27.9249 88.5451 28.2609 89.2811 28.2609C90.0011 28.2609 90.5691 27.9169 90.9851 27.2289C91.3291 26.6529 91.5051 25.9809 91.5051 25.1969Z" fill="#0D1B2A"/>
<path d="M99.6266 22.6291C99.4426 22.5971 99.2426 22.5811 99.0266 22.5811C98.3626 22.5811 97.8426 22.8291 97.4826 23.3331C97.1706 23.7731 97.0106 24.3411 97.0106 25.0131V29.4851H95.1146V23.6451C95.1146 22.6611 95.0986 21.7651 95.0586 20.9651H96.7066L96.7786 22.5971H96.8346C97.0346 22.0371 97.3466 21.5811 97.7786 21.2451C98.2026 20.9411 98.6586 20.7891 99.1466 20.7891C99.3226 20.7891 99.4826 20.8051 99.6186 20.8211L99.6266 22.6291Z" fill="#0D1B2A"/>
<path d="M108.088 24.8216C108.088 25.1576 108.064 25.4456 108.016 25.6776H102.336C102.36 26.5176 102.632 27.1656 103.16 27.6056C103.64 27.9976 104.256 28.1976 105.016 28.1976C105.856 28.1976 106.624 28.0616 107.312 27.7976L107.608 29.1096C106.8 29.4616 105.848 29.6376 104.752 29.6376C103.432 29.6376 102.392 29.2456 101.64 28.4696C100.888 27.6936 100.512 26.6456 100.512 25.3416C100.512 24.0616 100.864 22.9896 101.568 22.1336C102.304 21.2216 103.296 20.7656 104.544 20.7656C105.768 20.7656 106.704 21.2216 107.328 22.1336C107.832 22.8696 108.088 23.7576 108.088 24.8216ZM106.28 24.3336C106.296 23.7736 106.168 23.2856 105.912 22.8776C105.584 22.3496 105.08 22.0856 104.408 22.0856C103.792 22.0856 103.288 22.3416 102.904 22.8536C102.592 23.2616 102.4 23.7576 102.344 24.3256L106.28 24.3336Z" fill="#0D1B2A"/>
<path d="M42.9196 13.4486H41.9276L41.3836 11.7446H39.4956L38.9756 13.4486H38.0156L39.8796 7.64062H41.0316L42.9196 13.4486ZM41.2156 11.0246L40.7276 9.50462C40.6796 9.35262 40.5836 8.98462 40.4316 8.40863H40.4156C40.3516 8.65663 40.2716 9.01662 40.1356 9.50462L39.6556 11.0246H41.2156Z" fill="#0D1B2A"/>
<path d="M47.5904 9.25781L46.0064 13.4498H45.1024L43.5664 9.25781H44.5664L45.2784 11.4738C45.3984 11.8418 45.5024 12.1938 45.5824 12.5298H45.6064C45.6784 12.2258 45.7824 11.8738 45.9104 11.4738L46.6144 9.25781H47.5904Z" fill="#0D1B2A"/>
<path d="M50.9672 13.4515L50.8952 12.9715H50.8712C50.5832 13.3555 50.1752 13.5475 49.6472 13.5475C48.8952 13.5475 48.3672 13.0195 48.3672 12.3155C48.3672 11.2835 49.2632 10.7475 50.8152 10.7475V10.6675C50.8152 10.1155 50.5192 9.8435 49.9432 9.8435C49.5272 9.8435 49.1672 9.9475 48.8472 10.1555L48.6552 9.5475C49.0392 9.3075 49.5272 9.1875 50.0952 9.1875C51.1912 9.1875 51.7432 9.7635 51.7432 10.9235V12.4675C51.7432 12.8915 51.7592 13.2195 51.8072 13.4675L50.9672 13.4515ZM50.8392 11.3635C49.8072 11.3635 49.2872 11.6115 49.2872 12.2115C49.2872 12.6515 49.5512 12.8675 49.9272 12.8675C50.3992 12.8675 50.8392 12.5075 50.8392 12.0115V11.3635Z" fill="#0D1B2A"/>
<path d="M53.8137 8.56512C53.5017 8.56512 53.2617 8.32513 53.2617 8.00513C53.2617 7.68513 53.5097 7.45312 53.8297 7.45312C54.1497 7.45312 54.4057 7.68513 54.3977 8.00513C54.3977 8.34113 54.1577 8.56512 53.8137 8.56512ZM53.3657 9.25312H54.2937V13.4371H53.3657V9.25312Z" fill="#0D1B2A"/>
<path d="M55.9531 7.33594H56.8811V13.4399H55.9531V7.33594Z" fill="#0D1B2A"/>
<path d="M60.8305 13.4439L60.7585 12.9639H60.7345C60.4465 13.3479 60.0385 13.5399 59.5105 13.5399C58.7585 13.5399 58.2305 13.0119 58.2305 12.3079C58.2305 11.2759 59.1265 10.7399 60.6785 10.7399V10.6599C60.6785 10.1079 60.3825 9.83587 59.8065 9.83587C59.3905 9.83587 59.0305 9.93988 58.7105 10.1479L58.5185 9.53188C58.9025 9.29188 59.3905 9.17188 59.9585 9.17188C61.0545 9.17188 61.6065 9.74788 61.6065 10.9079V12.4519C61.6065 12.8759 61.6225 13.2039 61.6625 13.4519H60.8305V13.4439ZM60.7025 11.3559C59.6705 11.3559 59.1505 11.6039 59.1505 12.2039C59.1505 12.6439 59.4145 12.8599 59.7905 12.8599C60.2625 12.8599 60.7025 12.4999 60.7025 12.0039V11.3559Z" fill="#0D1B2A"/>
<path d="M65.3832 13.5439C64.7912 13.5439 64.3512 13.2959 64.0632 12.7999H64.0472L63.9912 13.4479H63.1992C63.2232 13.1119 63.2312 12.7359 63.2312 12.3199V7.33594H64.1672V9.87194H64.1832C64.4632 9.40794 64.9032 9.17594 65.5192 9.17594C66.5272 9.17594 67.2312 10.0399 67.2312 11.2959C67.2312 12.5919 66.4472 13.5439 65.3832 13.5439ZM65.1912 9.90394C64.6552 9.90394 64.1672 10.3679 64.1672 11.0159V11.7519C64.1672 12.3279 64.6072 12.7999 65.1752 12.7999C65.8712 12.7999 66.2872 12.2319 66.2872 11.3279C66.2872 10.4799 65.8552 9.90394 65.1912 9.90394Z" fill="#0D1B2A"/>
<path d="M68.6094 7.33594H69.5374V13.4399H68.6094V7.33594Z" fill="#0D1B2A"/>
<path d="M74.5982 11.5723H71.8062C71.8222 12.3643 72.3502 12.8122 73.1262 12.8122C73.5422 12.8122 73.9182 12.7403 74.2542 12.6123L74.3982 13.2603C74.0062 13.4363 73.5422 13.5163 72.9982 13.5163C71.6862 13.5163 70.9102 12.6923 70.9102 11.4043C70.9102 10.1242 71.7022 9.15625 72.8942 9.15625C73.9582 9.15625 74.6382 9.94825 74.6382 11.1483C74.6382 11.3163 74.6302 11.4603 74.5982 11.5723ZM73.7502 10.9083C73.7502 10.2603 73.4222 9.80425 72.8302 9.80425C72.2942 9.80425 71.8782 10.2683 71.8142 10.9083H73.7502Z" fill="#0D1B2A"/>
<path d="M80.2387 13.5477C79.0147 13.5477 78.2227 12.6357 78.2227 11.3957C78.2227 10.0997 79.0307 9.17969 80.3107 9.17969C81.5187 9.17969 82.3267 10.0517 82.3267 11.3237C82.3267 12.6277 81.4947 13.5477 80.2387 13.5477ZM80.2787 9.85969C79.6067 9.85969 79.1747 10.4917 79.1747 11.3637C79.1747 12.2277 79.6147 12.8517 80.2707 12.8517C80.9267 12.8517 81.3667 12.1797 81.3667 11.3397C81.3587 10.4917 80.9347 9.85969 80.2787 9.85969Z" fill="#0D1B2A"/>
<path d="M87.3281 13.4519H86.4001V11.0439C86.4001 10.2999 86.1121 9.93187 85.5521 9.93187C85.0001 9.93187 84.6241 10.4039 84.6241 10.9559V13.4439H83.6961V10.4599C83.6961 10.0919 83.6881 9.69188 83.6641 9.25988H84.4801L84.5201 9.90787H84.5441C84.7921 9.45987 85.3041 9.17188 85.8721 9.17188C86.7521 9.17188 87.3281 9.84388 87.3281 10.9399V13.4519Z" fill="#0D1B2A"/>
<path d="M93.4149 9.96275H92.3909V11.9948C92.3909 12.5148 92.5749 12.7707 92.9349 12.7707C93.0949 12.7707 93.2389 12.7547 93.3509 12.7307L93.3749 13.4348C93.1909 13.5068 92.9509 13.5387 92.6549 13.5387C91.9189 13.5387 91.4869 13.1307 91.4869 12.0747V9.96275H90.8789V9.26675H91.4869V8.49875L92.3989 8.21875V9.25875H93.4229V9.96275" fill="#0D1B2A"/>
<path d="M98.3429 13.4479H97.4149V11.0559C97.4149 10.3039 97.1269 9.92794 96.5669 9.92794C96.0869 9.92794 95.6389 10.2559 95.6389 10.9199V13.4399H94.7109V7.33594H95.6389V9.84794H95.6549C95.9509 9.39194 96.3669 9.16794 96.9109 9.16794C97.7989 9.16794 98.3429 9.85594 98.3429 10.9519V13.4479Z" fill="#0D1B2A"/>
<path d="M103.094 11.5723H100.302C100.318 12.3643 100.846 12.8122 101.622 12.8122C102.038 12.8122 102.414 12.7403 102.75 12.6123L102.894 13.2603C102.502 13.4363 102.038 13.5163 101.494 13.5163C100.182 13.5163 99.4062 12.6923 99.4062 11.4043C99.4062 10.1242 100.198 9.15625 101.39 9.15625C102.454 9.15625 103.134 9.94825 103.134 11.1483C103.134 11.3163 103.126 11.4603 103.094 11.5723ZM102.246 10.9083C102.246 10.2603 101.918 9.80425 101.326 9.80425C100.79 9.80425 100.366 10.2683 100.31 10.9083H102.246Z" fill="#0D1B2A"/>
</svg>
