<svg width="14" height="14" viewBox="0 0 14 14" fill="none" xmlns="http://www.w3.org/2000/svg">
  <path
    d="M13.1163 5.42625C12.8806 5.18 12.6369 4.92625 12.545 4.70312C12.46 4.49875 12.455 4.16 12.45 3.83187C12.4406 3.22187 12.4306 2.53062 11.95 2.05C11.4694 1.56937 10.7781 1.55937 10.1681 1.55C9.84 1.545 9.50125 1.54 9.29688 1.455C9.07438 1.36312 8.82 1.11937 8.57375 0.88375C8.1425 0.469375 7.6525 0 7 0C6.3475 0 5.85812 0.469375 5.42625 0.88375C5.18 1.11937 4.92625 1.36312 4.70312 1.455C4.5 1.54 4.16 1.545 3.83187 1.55C3.22187 1.55937 2.53062 1.56937 2.05 2.05C1.56937 2.53062 1.5625 3.22187 1.55 3.83187C1.545 4.16 1.54 4.49875 1.455 4.70312C1.36312 4.92562 1.11937 5.18 0.88375 5.42625C0.469375 5.8575 0 6.3475 0 7C0 7.6525 0.469375 8.14187 0.88375 8.57375C1.11937 8.82 1.36312 9.07375 1.455 9.29688C1.54 9.50125 1.545 9.84 1.55 10.1681C1.55937 10.7781 1.56937 11.4694 2.05 11.95C2.53062 12.4306 3.22187 12.4406 3.83187 12.45C4.16 12.455 4.49875 12.46 4.70312 12.545C4.92562 12.6369 5.18 12.8806 5.42625 13.1163C5.8575 13.5306 6.3475 14 7 14C7.6525 14 8.14187 13.5306 8.57375 13.1163C8.82 12.8806 9.07375 12.6369 9.29688 12.545C9.50125 12.46 9.84 12.455 10.1681 12.45C10.7781 12.4406 11.4694 12.4306 11.95 11.95C12.4306 11.4694 12.4406 10.7781 12.45 10.1681C12.455 9.84 12.46 9.50125 12.545 9.29688C12.6369 9.07438 12.8806 8.82 13.1163 8.57375C13.5306 8.1425 14 7.6525 14 7C14 6.3475 13.5306 5.85812 13.1163 5.42625ZM7 11C6.85166 11 6.70666 10.956 6.58332 10.8736C6.45999 10.7912 6.36386 10.6741 6.30709 10.537C6.25032 10.4 6.23547 10.2492 6.26441 10.1037C6.29335 9.9582 6.36478 9.82456 6.46967 9.71967C6.57456 9.61478 6.7082 9.54335 6.85368 9.51441C6.99917 9.48547 7.14997 9.50033 7.28701 9.55709C7.42406 9.61386 7.54119 9.70999 7.6236 9.83332C7.70601 9.95666 7.75 10.1017 7.75 10.25C7.75 10.4489 7.67098 10.6397 7.53033 10.7803C7.38968 10.921 7.19891 11 7 11ZM7.5 7.955V8C7.5 8.13261 7.44732 8.25979 7.35355 8.35355C7.25979 8.44732 7.13261 8.5 7 8.5C6.86739 8.5 6.74021 8.44732 6.64645 8.35355C6.55268 8.25979 6.5 8.13261 6.5 8V7.5C6.5 7.36739 6.55268 7.24021 6.64645 7.14645C6.74021 7.05268 6.86739 7 7 7C7.82687 7 8.5 6.4375 8.5 5.75C8.5 5.0625 7.82687 4.5 7 4.5C6.17313 4.5 5.5 5.0625 5.5 5.75V6C5.5 6.13261 5.44732 6.25979 5.35355 6.35355C5.25979 6.44732 5.13261 6.5 5 6.5C4.86739 6.5 4.74021 6.44732 4.64645 6.35355C4.55268 6.25979 4.5 6.13261 4.5 6V5.75C4.5 4.50938 5.62125 3.5 7 3.5C8.37875 3.5 9.5 4.50938 9.5 5.75C9.5 6.83625 8.64 7.74563 7.5 7.955Z"
    fill="currentColor"/>
</svg>
