<svg width="109" height="29" viewBox="0 0 109 29" fill="none" xmlns="http://www.w3.org/2000/svg">
<path d="M9.93575 13.1973C9.93575 13.1973 1.78375 8.67733 1.30375 8.41333C0.82375 8.14933 0.34375 8.30933 0.34375 8.86133V28.3413C0.34375 28.7573 0.68775 28.9333 1.10375 28.7093C1.51975 28.4773 9.93575 23.8133 9.93575 23.8133C9.93575 23.8133 11.0798 23.1813 11.6478 22.8613C12.5678 22.3493 14.4078 21.3333 14.4078 21.3333C14.4078 21.3333 18.2078 19.2293 18.7118 18.9493C19.2157 18.6693 19.1678 18.2853 18.7438 18.0693C18.3198 17.8533 14.4158 15.6693 14.4158 15.6693L9.93575 13.1973Z" fill="#0D1B2A"/>
<path d="M11.4403 18.4803L0.720312 8.32031C0.472313 8.37631 0.320312 8.56831 0.320312 8.88031V28.3203C0.320312 28.5843 0.424312 28.7443 0.560312 28.8003L11.4403 18.4803Z" fill="#0D1B2A"/>
<path d="M14.4003 15.6786L9.92031 13.1986C9.90431 13.2386 1.75231 8.71064 1.28031 8.47864C0.800312 8.17464 0.320312 8.34264 0.320312 8.87864V28.3986C0.320312 28.8306 0.664313 29.0066 1.04031 28.7986C1.49631 28.5426 9.90431 23.8786 9.92031 23.8386L14.4003 21.3586C14.3763 21.3906 18.1683 19.2866 18.6403 19.0386C19.1843 18.7266 19.1283 18.3426 18.7203 18.1586C18.2803 17.9026 14.3763 15.7186 14.4003 15.6786Z" fill="#0D1B2A"/>
<path d="M9.91641 13.1986C9.90041 13.2386 1.74841 8.71064 1.27641 8.47864C0.796406 8.17464 0.316406 8.34264 0.316406 8.87864V28.3986C0.316406 28.8306 0.660406 29.0066 1.03641 28.7986C1.49241 28.5426 9.90041 23.8786 9.91641 23.8386L14.3964 21.3586C14.3724 21.3906 18.1644 19.2866 18.6364 19.0386C19.1804 18.7266 19.1244 18.3426 18.7164 18.1586C18.2764 17.9026 14.3724 15.7186 14.3964 15.6786L9.91641 13.1986Z" fill="#0D1B2A"/>
<path d="M1.28694 8.40954C1.07894 8.30554 0.878937 8.27354 0.710938 8.31354L11.4389 18.4895L14.4069 15.6815L9.93494 13.2015C9.93494 13.2015 5.71894 10.8655 3.17494 9.45754L1.28694 8.40954Z" fill="#0D1B2A"/>
<path d="M14.4003 15.6786L9.92031 13.1986C9.90431 13.2386 1.76031 8.71064 1.28031 8.47864C0.800312 8.17464 0.320312 8.34264 0.320312 8.87864V28.3986C0.320312 28.8306 0.664313 29.0066 1.04031 28.7986C1.49631 28.5426 9.90431 23.8786 9.92031 23.8386L14.4003 21.3586C14.3763 21.3906 18.1683 19.2866 18.6403 19.0386C19.1843 18.7266 19.1283 18.3426 18.7203 18.1586C18.2803 17.9026 14.3763 15.7186 14.4003 15.6786Z" fill="#0D1B2A"/>
<path d="M76.4449 21.9086L75.5569 22.7486C75.3489 22.8606 75.1489 22.9966 74.9489 23.0846C74.3329 23.3646 73.7089 23.4366 73.1489 23.4366C72.5569 23.4366 71.6289 23.3966 70.6849 22.7086C69.3729 21.7806 68.7969 20.1726 68.7969 18.7806C68.7969 15.8926 71.1329 14.4766 73.0449 14.4766C73.7089 14.4766 74.3969 14.6446 74.9489 14.9966C75.8769 15.6126 76.1169 16.4126 76.2449 16.8446L71.8929 18.6126L70.4689 18.7246C70.9329 21.0926 72.5249 22.4686 74.2849 22.4686C75.1649 22.4686 75.8129 22.1806 76.4129 21.8846C76.4129 21.8846 76.5329 21.8206 76.4449 21.9086ZM73.7889 17.1566C74.1409 17.0286 74.3169 16.9166 74.3169 16.6526C74.3169 15.9006 73.4929 15.0366 72.5009 15.0366C71.7729 15.0366 70.3969 15.6206 70.3969 17.6446C70.3969 17.9646 70.4369 18.3006 70.4529 18.6366L73.7889 17.1566Z" fill="#0D1B2A"/>
<path d="M67.3562 21.8061C67.3562 22.5261 67.4843 22.6381 68.0923 22.6941C68.4123 22.7341 68.7242 22.7501 69.0363 22.7821L68.3562 23.1901H65.1002C65.5242 22.6301 65.6042 22.5741 65.6042 22.2061V21.7901L65.5962 10.7501H64.1562L65.5402 10.0781H68.1802C67.6042 10.4141 67.4362 10.6141 67.3642 11.2621L67.3562 21.8061Z" fill="#0D1B2A"/>
<path d="M62.3097 15.3908C62.7337 15.7428 63.6137 16.4868 63.6137 17.8948C63.6137 19.2708 62.8457 19.9188 62.0697 20.5348C61.8297 20.7748 61.5497 21.0388 61.5497 21.4468C61.5497 21.8548 61.8297 22.0788 62.0297 22.2468L62.6937 22.7668C63.5017 23.4548 64.2377 24.0868 64.2377 25.3668C64.2377 27.1108 62.5577 28.8788 59.3897 28.8788C56.7177 28.8788 55.4297 27.5988 55.4297 26.2228C55.4297 25.5508 55.7577 24.6068 56.8537 23.9588C57.9977 23.2548 59.5417 23.1588 60.3737 23.1028C60.1177 22.7668 59.8217 22.4148 59.8217 21.8388C59.8217 21.5268 59.9177 21.3348 60.0057 21.1108C59.8057 21.1268 59.5977 21.1508 59.4137 21.1508C57.4617 21.1508 56.3577 19.6788 56.3577 18.2308C56.3577 17.3748 56.7417 16.4308 57.5417 15.7428C58.5897 14.8708 59.8457 14.7188 60.8377 14.7188H64.6377L63.4537 15.3908H62.3097ZM61.0137 23.6228C60.8617 23.5988 60.7737 23.5988 60.5897 23.5988C60.4217 23.5988 59.4137 23.6388 58.6377 23.9028C58.2297 24.0548 57.0377 24.5108 57.0377 25.8548C57.0377 27.1988 58.3177 28.1668 60.3097 28.1668C62.0937 28.1668 63.0377 27.2948 63.0377 26.1268C63.0377 25.1508 62.4217 24.6388 61.0137 23.6228ZM61.5337 20.0388C61.9577 19.6148 61.9977 19.0228 61.9977 18.6868C61.9977 17.3508 61.2137 15.2788 59.6857 15.2788C59.2137 15.2788 58.6937 15.5187 58.3977 15.8947C58.0857 16.2788 57.9977 16.7828 57.9977 17.2628C57.9977 18.5028 58.7177 20.5588 60.2937 20.5588C60.7497 20.5588 61.2457 20.3348 61.5337 20.0388Z" fill="#0D1B2A"/>
<path d="M50.8204 23.4366C47.8844 23.4366 46.3164 21.1166 46.3164 19.0206C46.3164 16.5726 48.2924 14.4766 51.1004 14.4766C53.8124 14.4766 55.5164 16.6286 55.5164 18.8926C55.5164 21.1006 53.8364 23.4366 50.8204 23.4366ZM53.1164 21.9246C53.5644 21.3246 53.6764 20.5726 53.6764 19.8446C53.6764 18.1886 52.9004 15.0366 50.5964 15.0366C49.9884 15.0366 49.3724 15.2766 48.9244 15.6766C48.2044 16.3326 48.0684 17.1566 48.0684 17.9646C48.0684 19.8206 48.9724 22.8766 51.2204 22.8766C51.9564 22.8766 52.6924 22.5246 53.1164 21.9246Z" fill="#0D1B2A"/>
<path d="M40.9806 23.4366C38.0446 23.4366 36.4766 21.1166 36.4766 19.0206C36.4766 16.5726 38.4526 14.4766 41.2606 14.4766C43.9726 14.4766 45.6766 16.6286 45.6766 18.8926C45.6766 21.1006 43.9966 23.4366 40.9806 23.4366ZM43.2766 21.9246C43.7246 21.3246 43.8366 20.5726 43.8366 19.8446C43.8366 18.1886 43.0526 15.0366 40.7566 15.0366C40.1406 15.0366 39.5326 15.2766 39.0846 15.6766C38.3566 16.3326 38.2286 17.1566 38.2286 17.9646C38.2286 19.8206 39.1406 22.8766 41.3806 22.8766C42.1166 22.8766 42.8526 22.5246 43.2766 21.9246Z" fill="#0D1B2A"/>
<path d="M35.2613 22.883L32.7733 23.459C31.7653 23.619 30.8613 23.763 29.9013 23.763C25.1013 23.755 23.2773 20.203 23.2773 17.419C23.2773 14.027 25.8693 10.875 30.3013 10.875C31.2373 10.875 32.1413 11.011 32.9653 11.243C34.2693 11.611 34.8773 12.067 35.2613 12.331L33.8133 13.715L33.2053 13.851L33.6373 13.155C33.0453 12.579 31.9653 11.507 29.9173 11.507C27.1733 11.507 25.1013 13.603 25.1013 16.667C25.1013 19.955 27.4613 23.051 31.2533 23.051C32.3653 23.051 32.9413 22.827 33.4613 22.619V19.795L30.8373 19.939L32.2293 19.187H35.9173L35.4693 19.627C35.3493 19.731 35.3333 19.763 35.2933 19.907C35.2773 20.067 35.2613 20.571 35.2613 20.755V22.883Z" fill="#0D1B2A"/>
<path d="M81.811 21.9886V26.7166H80.875V14.6926H81.811V16.0606C82.419 15.1726 83.539 14.4766 84.827 14.4766C87.147 14.4766 88.715 16.2446 88.715 19.0366C88.715 21.8126 87.155 23.6126 84.827 23.6126C83.611 23.6126 82.515 22.9806 81.811 21.9886ZM87.755 19.1086C87.755 16.9806 86.659 15.3566 84.707 15.3566C83.499 15.3566 82.339 16.3166 81.835 17.1566V21.0446C82.339 21.8846 83.499 22.8766 84.707 22.8766C86.659 22.8766 87.755 21.2366 87.755 19.1086Z" fill="#0D1B2A"/>
<path d="M90 11.3594H90.96V23.4394H90V11.3594Z" fill="#0D1B2A"/>
<path d="M101.397 25.8886C101.597 25.9766 101.941 26.0326 102.157 26.0326C102.733 26.0326 103.125 25.8006 103.485 24.9686L104.165 23.4166L100.477 14.6406H101.525L104.685 22.2486L107.821 14.6406H108.877L104.381 25.2566C103.917 26.3526 103.181 26.8806 102.173 26.8806C101.869 26.8806 101.469 26.8246 101.237 26.7526L101.397 25.8886Z" fill="#0D1B2A"/>
<path d="M98.7506 23.4286C98.6866 23.1246 98.6386 22.8606 98.6066 22.6366C98.5746 22.4126 98.5586 22.1886 98.5586 21.9566C98.2386 22.4286 97.7826 22.8286 97.1906 23.1406C96.6066 23.4526 96.0466 23.6046 95.2866 23.6046C94.3666 23.6046 93.6546 23.3806 93.1506 22.9166C92.6466 22.4606 92.3906 21.8366 92.3906 21.0526C92.3906 20.2686 92.7586 19.6286 93.4946 19.1406C94.2306 18.6526 95.1826 18.4046 96.3586 18.4046H98.5506V17.3166C98.5506 16.6926 98.3346 16.1966 97.9106 15.8446C97.4866 15.4846 96.8866 15.3086 96.1106 15.3086C95.3986 15.3086 94.8226 15.4766 94.3826 15.7966C93.9506 16.1246 93.7266 16.5326 93.7266 17.0206H92.7666L92.7506 16.9726C92.7186 16.3086 93.0146 15.7326 93.6626 15.2286C94.3026 14.7246 95.1346 14.4766 96.1666 14.4766C97.1906 14.4766 98.0226 14.7246 98.6466 15.2206C99.2706 15.7086 99.5826 16.4206 99.5826 17.3406V21.6606C99.5826 21.9726 99.5986 22.2686 99.6386 22.5646C99.6786 22.8606 99.7426 23.1486 99.8226 23.4286H98.7506ZM95.4066 22.7966C96.2066 22.7966 96.7826 22.6126 97.3666 22.2606C97.9506 21.9086 98.3426 21.4446 98.5506 20.8846V19.1966H96.3426C95.5026 19.1966 94.8066 19.3806 94.2546 19.7646C93.7026 20.1406 93.4306 20.5966 93.4306 21.1326C93.4306 21.6366 93.6066 22.0366 93.9586 22.3406C94.3186 22.6446 94.7986 22.7966 95.4066 22.7966Z" fill="#0D1B2A"/>
<path d="M22.9609 3.22262C22.9609 1.50262 24.3369 0.390625 26.0489 0.390625C27.1929 0.390625 27.9449 0.902625 28.4169 1.52663L27.5769 1.97463C27.2569 1.56663 26.7049 1.24663 26.0489 1.24663C24.8889 1.24663 24.0169 2.07062 24.0169 3.22262C24.0249 4.36662 24.8889 5.19862 26.0489 5.19862C26.6489 5.19862 27.1769 4.94262 27.4409 4.70262V3.86262H25.6809V3.01462H28.4649V5.05463C27.8889 5.65462 27.0649 6.05462 26.0489 6.05462C24.3369 6.06262 22.9609 4.94262 22.9609 3.22262Z" fill="#0D1B2A"/>
<path d="M29.8008 5.98056V0.476562H33.8888V1.32456H30.8488V2.74056H33.8248V3.59656H30.8488V5.13256H33.8888V5.98056H29.8008Z" fill="#0D1B2A"/>
<path d="M36.6627 5.98056V1.32456H34.8867V0.476562H39.4707V1.32456H37.6947V5.98056H36.6627Z" fill="#0D1B2A"/>
<path d="M43.1445 0.476562H44.1445V5.98056H43.1445V0.476562Z" fill="#0D1B2A"/>
<path d="M47.0104 5.98056V1.32456H45.2344V0.476562H49.8184V1.32456H48.0424V5.98056H47.0104Z" fill="#0D1B2A"/>
<path d="M53.2383 3.23044C53.2383 1.59844 54.4943 0.398438 56.2863 0.398438C58.0623 0.398438 59.3263 1.59844 59.3263 3.23044C59.3263 4.86244 58.0543 6.06244 56.2863 6.06244C54.4943 6.06244 53.2383 4.86244 53.2383 3.23044ZM58.2383 3.18244C58.2383 2.06244 57.4703 1.22244 56.2783 1.22244C55.0783 1.22244 54.3183 2.06244 54.3183 3.18244C54.3183 4.29444 55.0783 5.14244 56.2783 5.14244C57.4703 5.14244 58.2383 4.30244 58.2383 3.18244Z" fill="#0D1B2A"/>
<path d="M64.5843 5.98056L61.5203 2.04456V5.98056H60.4883V0.476562H61.5443L64.5443 4.29256V0.476562H65.5763V5.98056H64.5843Z" fill="#0D1B2A"/>
</svg>
