<svg width="172" height="128" viewBox="0 0 172 128" fill="none" xmlns="http://www.w3.org/2000/svg">
  <g filter="url(#filter0_d_1_42)">
    <rect x="62" y="44" width="40" height="40" rx="8" fill="white" fill-opacity="0.8"
          shape-rendering="crispEdges"/>
  </g>
  <path
    d="M90.0414 71.1875C89.9865 71.2825 89.9076 71.3614 89.8126 71.4163C89.7175 71.4712 89.6097 71.5 89.5 71.5H74.5C74.3903 71.4999 74.2826 71.4709 74.1877 71.416C74.0928 71.3611 74.014 71.2822 73.9592 71.1872C73.9044 71.0922 73.8756 70.9845 73.8756 70.8748C73.8757 70.7652 73.9045 70.6575 73.9594 70.5625C75.1492 68.5055 76.9828 67.0305 79.1227 66.3312C78.0642 65.7011 77.2418 64.741 76.7819 63.5983C76.3219 62.4556 76.2498 61.1934 76.5765 60.0057C76.9033 58.8181 77.6109 57.7705 78.5906 57.0238C79.5704 56.2772 80.7682 55.8729 82 55.8729C83.2318 55.8729 84.4296 56.2772 85.4094 57.0238C86.3891 57.7705 87.0967 58.8181 87.4235 60.0057C87.7502 61.1934 87.6781 62.4556 87.2181 63.5983C86.7582 64.741 85.9358 65.7011 84.8773 66.3312C87.0172 67.0305 88.8508 68.5055 90.0406 70.5625C90.0956 70.6574 90.1246 70.7652 90.1248 70.8749C90.1249 70.9846 90.0961 71.0924 90.0414 71.1875Z"
    fill="#27915E"/>
  <g opacity="0.4">
    <rect x="106" y="44" width="40" height="40" rx="8" fill="white" fill-opacity="0.8"/>
    <g opacity="0.2">
      <path
        d="M134.041 71.1875C133.987 71.2825 133.908 71.3614 133.813 71.4163C133.718 71.4712 133.61 71.5 133.5 71.5H118.5C118.39 71.4999 118.283 71.4709 118.188 71.416C118.093 71.3611 118.014 71.2822 117.959 71.1872C117.904 71.0922 117.876 70.9845 117.876 70.8748C117.876 70.7652 117.905 70.6575 117.959 70.5625C119.149 68.5055 120.983 67.0305 123.123 66.3312C122.064 65.7011 121.242 64.741 120.782 63.5983C120.322 62.4556 120.25 61.1934 120.577 60.0057C120.903 58.8181 121.611 57.7705 122.591 57.0238C123.57 56.2772 124.768 55.8729 126 55.8729C127.232 55.8729 128.43 56.2772 129.409 57.0238C130.389 57.7705 131.097 58.8181 131.423 60.0057C131.75 61.1934 131.678 62.4556 131.218 63.5983C130.758 64.741 129.936 65.7011 128.877 66.3312C131.017 67.0305 132.851 68.5055 134.041 70.5625C134.096 70.6574 134.125 70.7652 134.125 70.8749C134.125 70.9846 134.096 71.0924 134.041 71.1875Z"
        fill="black"/>
    </g>
  </g>
  <g opacity="0.4">
    <rect x="18" y="44" width="40" height="40" rx="8" fill="white" fill-opacity="0.8"/>
    <g opacity="0.2">
      <path
        d="M46.0414 71.1875C45.9865 71.2825 45.9076 71.3614 45.8126 71.4163C45.7175 71.4712 45.6097 71.5 45.5 71.5H30.5C30.3903 71.4999 30.2826 71.4709 30.1877 71.416C30.0928 71.3611 30.014 71.2822 29.9592 71.1872C29.9044 71.0922 29.8756 70.9845 29.8756 70.8748C29.8757 70.7652 29.9045 70.6575 29.9594 70.5625C31.1492 68.5055 32.9828 67.0305 35.1227 66.3312C34.0642 65.7011 33.2418 64.741 32.7819 63.5983C32.3219 62.4556 32.2498 61.1934 32.5765 60.0057C32.9033 58.8181 33.6109 57.7705 34.5906 57.0238C35.5704 56.2772 36.7682 55.8729 38 55.8729C39.2318 55.8729 40.4296 56.2772 41.4094 57.0238C42.3891 57.7705 43.0967 58.8181 43.4235 60.0057C43.7502 61.1934 43.6781 62.4556 43.2181 63.5983C42.7582 64.741 41.9358 65.7011 40.8773 66.3312C43.0172 67.0305 44.8508 68.5055 46.0406 70.5625C46.0956 70.6574 46.1246 70.7652 46.1248 70.8749C46.1249 70.9846 46.0961 71.0924 46.0414 71.1875Z"
        fill="black"/>
    </g>
  </g>
  <g opacity="0.4">
    <rect x="88" width="40" height="40" rx="8" fill="white" fill-opacity="0.8"/>
    <g opacity="0.2">
      <path
        d="M116.041 27.1875C115.987 27.2825 115.908 27.3614 115.813 27.4163C115.718 27.4712 115.61 27.5 115.5 27.5H100.5C100.39 27.4999 100.283 27.4709 100.188 27.416C100.093 27.3611 100.014 27.2822 99.9592 27.1872C99.9044 27.0922 99.8756 26.9845 99.8756 26.8748C99.8757 26.7652 99.9045 26.6575 99.9594 26.5625C101.149 24.5055 102.983 23.0305 105.123 22.3313C104.064 21.7011 103.242 20.741 102.782 19.5983C102.322 18.4556 102.25 17.1934 102.577 16.0057C102.903 14.8181 103.611 13.7705 104.591 13.0238C105.57 12.2772 106.768 11.8729 108 11.8729C109.232 11.8729 110.43 12.2772 111.409 13.0238C112.389 13.7705 113.097 14.8181 113.423 16.0057C113.75 17.1934 113.678 18.4556 113.218 19.5983C112.758 20.741 111.936 21.7011 110.877 22.3313C113.017 23.0305 114.851 24.5055 116.041 26.5625C116.096 26.6574 116.125 26.7652 116.125 26.8749C116.125 26.9846 116.096 27.0924 116.041 27.1875Z"
        fill="black"/>
    </g>
  </g>
  <g opacity="0.4">
    <rect x="132" width="40" height="40" rx="8" fill="white" fill-opacity="0.8"/>
    <g opacity="0.2">
      <path
        d="M160.041 27.1875C159.987 27.2825 159.908 27.3614 159.813 27.4163C159.718 27.4712 159.61 27.5 159.5 27.5H144.5C144.39 27.4999 144.283 27.4709 144.188 27.416C144.093 27.3611 144.014 27.2822 143.959 27.1872C143.904 27.0922 143.876 26.9845 143.876 26.8748C143.876 26.7652 143.905 26.6575 143.959 26.5625C145.149 24.5055 146.983 23.0305 149.123 22.3313C148.064 21.7011 147.242 20.741 146.782 19.5983C146.322 18.4556 146.25 17.1934 146.577 16.0057C146.903 14.8181 147.611 13.7705 148.591 13.0238C149.57 12.2772 150.768 11.8729 152 11.8729C153.232 11.8729 154.43 12.2772 155.409 13.0238C156.389 13.7705 157.097 14.8181 157.423 16.0057C157.75 17.1934 157.678 18.4556 157.218 19.5983C156.758 20.741 155.936 21.7011 154.877 22.3313C157.017 23.0305 158.851 24.5055 160.041 26.5625C160.096 26.6574 160.125 26.7652 160.125 26.8749C160.125 26.9846 160.096 27.0924 160.041 27.1875Z"
        fill="black"/>
    </g>
  </g>
  <g opacity="0.4">
    <rect x="88" y="88" width="40" height="40" rx="8" fill="white" fill-opacity="0.8"/>
    <g opacity="0.2">
      <path
        d="M116.041 115.188C115.987 115.283 115.908 115.361 115.813 115.416C115.718 115.471 115.61 115.5 115.5 115.5H100.5C100.39 115.5 100.283 115.471 100.188 115.416C100.093 115.361 100.014 115.282 99.9592 115.187C99.9044 115.092 99.8756 114.984 99.8756 114.875C99.8757 114.765 99.9045 114.657 99.9594 114.563C101.149 112.505 102.983 111.03 105.123 110.331C104.064 109.701 103.242 108.741 102.782 107.598C102.322 106.456 102.25 105.193 102.577 104.006C102.903 102.818 103.611 101.77 104.591 101.024C105.57 100.277 106.768 99.8729 108 99.8729C109.232 99.8729 110.43 100.277 111.409 101.024C112.389 101.77 113.097 102.818 113.423 104.006C113.75 105.193 113.678 106.456 113.218 107.598C112.758 108.741 111.936 109.701 110.877 110.331C113.017 111.03 114.851 112.505 116.041 114.563C116.096 114.657 116.125 114.765 116.125 114.875C116.125 114.985 116.096 115.092 116.041 115.188Z"
        fill="black"/>
    </g>
  </g>
  <g opacity="0.4">
    <rect x="132" y="88" width="40" height="40" rx="8" fill="white" fill-opacity="0.8"/>
    <g opacity="0.2">
      <path
        d="M160.041 115.188C159.987 115.283 159.908 115.361 159.813 115.416C159.718 115.471 159.61 115.5 159.5 115.5H144.5C144.39 115.5 144.283 115.471 144.188 115.416C144.093 115.361 144.014 115.282 143.959 115.187C143.904 115.092 143.876 114.984 143.876 114.875C143.876 114.765 143.905 114.657 143.959 114.563C145.149 112.505 146.983 111.03 149.123 110.331C148.064 109.701 147.242 108.741 146.782 107.598C146.322 106.456 146.25 105.193 146.577 104.006C146.903 102.818 147.611 101.77 148.591 101.024C149.57 100.277 150.768 99.8729 152 99.8729C153.232 99.8729 154.43 100.277 155.409 101.024C156.389 101.77 157.097 102.818 157.423 104.006C157.75 105.193 157.678 106.456 157.218 107.598C156.758 108.741 155.936 109.701 154.877 110.331C157.017 111.03 158.851 112.505 160.041 114.563C160.096 114.657 160.125 114.765 160.125 114.875C160.125 114.985 160.096 115.092 160.041 115.188Z"
        fill="black"/>
    </g>
  </g>
  <g opacity="0.4">
    <rect x="44" width="40" height="40" rx="8" fill="white" fill-opacity="0.8"/>
    <g opacity="0.2">
      <path
        d="M72.0414 27.1875C71.9865 27.2825 71.9076 27.3614 71.8126 27.4163C71.7175 27.4712 71.6097 27.5 71.5 27.5H56.5C56.3903 27.4999 56.2826 27.4709 56.1877 27.416C56.0928 27.3611 56.014 27.2822 55.9592 27.1872C55.9044 27.0922 55.8756 26.9845 55.8756 26.8748C55.8757 26.7652 55.9045 26.6575 55.9594 26.5625C57.1492 24.5055 58.9828 23.0305 61.1227 22.3313C60.0642 21.7011 59.2418 20.741 58.7819 19.5983C58.3219 18.4556 58.2498 17.1934 58.5765 16.0057C58.9033 14.8181 59.6109 13.7705 60.5906 13.0238C61.5704 12.2772 62.7682 11.8729 64 11.8729C65.2318 11.8729 66.4296 12.2772 67.4094 13.0238C68.3891 13.7705 69.0967 14.8181 69.4235 16.0057C69.7502 17.1934 69.6781 18.4556 69.2181 19.5983C68.7582 20.741 67.9358 21.7011 66.8773 22.3313C69.0172 23.0305 70.8508 24.5055 72.0406 26.5625C72.0956 26.6574 72.1246 26.7652 72.1248 26.8749C72.1249 26.9846 72.0961 27.0924 72.0414 27.1875Z"
        fill="black"/>
    </g>
  </g>
  <g opacity="0.4">
    <rect width="40" height="40" rx="8" fill="white" fill-opacity="0.8"/>
    <g opacity="0.2">
      <path
        d="M28.0414 27.1875C27.9865 27.2825 27.9076 27.3614 27.8126 27.4163C27.7175 27.4712 27.6097 27.5 27.5 27.5H12.5C12.3903 27.4999 12.2826 27.4709 12.1877 27.416C12.0928 27.3611 12.014 27.2822 11.9592 27.1872C11.9044 27.0922 11.8756 26.9845 11.8756 26.8748C11.8757 26.7652 11.9045 26.6575 11.9594 26.5625C13.1492 24.5055 14.9828 23.0305 17.1227 22.3313C16.0642 21.7011 15.2418 20.741 14.7819 19.5983C14.3219 18.4556 14.2498 17.1934 14.5765 16.0057C14.9033 14.8181 15.6109 13.7705 16.5906 13.0238C17.5704 12.2772 18.7682 11.8729 20 11.8729C21.2318 11.8729 22.4296 12.2772 23.4094 13.0238C24.3891 13.7705 25.0967 14.8181 25.4235 16.0057C25.7502 17.1934 25.6781 18.4556 25.2181 19.5983C24.7582 20.741 23.9358 21.7011 22.8773 22.3313C25.0172 23.0305 26.8508 24.5055 28.0406 26.5625C28.0956 26.6574 28.1246 26.7652 28.1248 26.8749C28.1249 26.9846 28.0961 27.0924 28.0414 27.1875Z"
        fill="black"/>
    </g>
  </g>
  <g opacity="0.4">
    <rect x="44" y="88" width="40" height="40" rx="8" fill="white" fill-opacity="0.8"/>
    <g opacity="0.2">
      <path
        d="M72.0414 115.188C71.9865 115.283 71.9076 115.361 71.8126 115.416C71.7175 115.471 71.6097 115.5 71.5 115.5H56.5C56.3903 115.5 56.2826 115.471 56.1877 115.416C56.0928 115.361 56.014 115.282 55.9592 115.187C55.9044 115.092 55.8756 114.984 55.8756 114.875C55.8757 114.765 55.9045 114.657 55.9594 114.563C57.1492 112.505 58.9828 111.03 61.1227 110.331C60.0642 109.701 59.2418 108.741 58.7819 107.598C58.3219 106.456 58.2498 105.193 58.5765 104.006C58.9033 102.818 59.6109 101.77 60.5906 101.024C61.5704 100.277 62.7682 99.8729 64 99.8729C65.2318 99.8729 66.4296 100.277 67.4094 101.024C68.3891 101.77 69.0967 102.818 69.4235 104.006C69.7502 105.193 69.6781 106.456 69.2181 107.598C68.7582 108.741 67.9358 109.701 66.8773 110.331C69.0172 111.03 70.8508 112.505 72.0406 114.563C72.0956 114.657 72.1246 114.765 72.1248 114.875C72.1249 114.985 72.0961 115.092 72.0414 115.188Z"
        fill="black"/>
    </g>
  </g>
  <defs>
    <filter id="filter0_d_1_42" x="57" y="41" width="56" height="56" filterUnits="userSpaceOnUse"
            color-interpolation-filters="sRGB">
      <feFlood flood-opacity="0" result="BackgroundImageFix"/>
      <feColorMatrix in="SourceAlpha" type="matrix"
                     values="0 0 0 0 0 0 0 0 0 0 0 0 0 0 0 0 0 0 127 0" result="hardAlpha"/>
      <feOffset dx="3" dy="5"/>
      <feGaussianBlur stdDeviation="4"/>
      <feComposite in2="hardAlpha" operator="out"/>
      <feColorMatrix type="matrix" values="0 0 0 0 0 0 0 0 0 0 0 0 0 0 0 0 0 0 0.04 0"/>
      <feBlend mode="normal" in2="BackgroundImageFix" result="effect1_dropShadow_1_42"/>
      <feBlend mode="normal" in="SourceGraphic" in2="effect1_dropShadow_1_42" result="shape"/>
    </filter>
  </defs>
</svg>
